<?xml version="1.0" standalone="no"?>
<!DOCTYPE svg PUBLIC "-//W3C//DTD SVG 20010904//EN"
 "http://www.w3.org/TR/2001/REC-SVG-20010904/DTD/svg10.dtd">
<svg version="1.0" xmlns="http://www.w3.org/2000/svg"
 width="700.000000pt" height="700.000000pt" viewBox="0 0 700.000000 700.000000"
 preserveAspectRatio="xMidYMid meet">
<metadata>
Created by potrace 1.14, written by Peter Selinger 2001-2017
</metadata>
<g transform="translate(0.000000,700.000000) scale(0.100000,-0.100000)"
fill="#000000" stroke="none">
<path d="M3680 6574 c-47 -7 -101 -15 -120 -18 -59 -9 -162 -33 -225 -52 -33
-10 -64 -19 -70 -20 -37 -7 -229 -86 -325 -133 -107 -54 -241 -132 -266 -156
-42 -40 -43 -82 -4 -205 16 -52 30 -96 30 -98 0 -2 -21 16 -46 40 -104 98
-158 117 -217 76 -155 -108 -396 -418 -529 -678 -134 -261 -203 -500 -253
-870 -3 -25 -8 -56 -10 -70 -8 -46 -46 -300 -50 -327 -2 -16 -8 -57 -14 -93
-5 -36 -13 -85 -16 -110 -8 -55 -14 -97 -20 -130 -2 -14 -7 -45 -10 -70 -3
-25 -8 -56 -10 -70 -6 -32 -6 -34 -55 -355 -43 -287 -47 -314 -55 -372 -3 -21
-8 -49 -10 -63 -3 -14 -7 -43 -10 -65 -4 -22 -10 -65 -15 -95 -5 -30 -12 -75
-15 -100 -7 -54 -14 -96 -20 -130 -4 -25 -12 -79 -20 -140 -2 -17 -6 -43 -9
-58 -6 -26 -16 -95 -18 -118 -1 -8 -37 -12 -107 -12 -120 -1 -206 -23 -282
-70 -160 -102 -242 -293 -204 -476 7 -33 11 -64 9 -67 -1 -3 -35 -5 -74 -4
-85 3 -142 -21 -160 -65 -9 -22 -12 -147 -12 -471 1 -479 0 -467 57 -505 23
-15 256 -17 2969 -17 3191 0 2976 -3 3018 54 18 24 19 49 20 471 0 414 -1 448
-18 477 -25 42 -76 61 -158 57 -37 -2 -68 0 -71 4 -2 4 0 23 6 42 41 152 -13
336 -134 449 -41 38 -147 99 -173 99 -24 0 -24 19 -4 154 12 75 23 150 25 168
4 34 13 89 22 143 2 17 6 44 9 60 4 35 15 102 20 130 10 48 5 106 -10 130 -29
45 -68 57 -162 51 -46 -3 -84 -3 -84 0 0 18 78 157 120 214 50 67 94 112 168
169 23 18 47 42 53 52 9 17 24 101 44 234 3 23 7 50 9 60 2 11 7 47 11 80 3
32 8 62 10 65 1 3 6 28 9 55 4 28 11 77 16 110 25 160 32 394 17 563 -20 224
-92 506 -177 697 -58 129 -76 164 -136 265 -118 200 -271 388 -438 535 -43 39
-84 75 -90 80 -16 14 -125 96 -163 121 -197 136 -525 281 -739 329 -229 50
-348 64 -564 62 -102 0 -223 -6 -270 -13z"/>
</g>
</svg>
