<svg xmlns="http://www.w3.org/2000/svg" viewBox="0 0 64 64"><defs><style>.cls-1{isolation:isolate;}.cls-2{fill:#fe330a;}.cls-3{fill:#3c2539;}.cls-4{fill:#f79610;}.cls-5,.cls-6{fill:none;stroke:#000;stroke-width:2.15px;}.cls-5{stroke-miterlimit:10;}.cls-6{stroke-linecap:round;stroke-linejoin:round;}.cls-7{fill:#040404;}.cls-8{opacity:0.25;mix-blend-mode:multiply;}.cls-9{fill:#fff;mix-blend-mode:overlay;}</style></defs><title>Icon Color</title><g class="cls-1"><g id="Layer_1" data-name="Layer 1"><g id="Vector"><path class="cls-2" d="M56.58,49.14a3.12,3.12,0,0,1-.91,2.2,3.19,3.19,0,0,1-.4.33H8.73a3.11,3.11,0,0,1-.4-4.73,3.07,3.07,0,0,1,2.19-.9h43A3.1,3.1,0,0,1,56.58,49.14Z"/><rect class="cls-3" x="5.35" y="51.67" width="53.3" height="7.53"/><path class="cls-3" d="M51.58,38.73A9.13,9.13,0,0,1,55.22,33L56,27.79A20,20,0,0,0,25.2,8.12c.71,2.33,1.43,4.68,1.54,5s-1.91-1.43-3.9-3.17a19.94,19.94,0,0,0-6.41,11.9L12.78,46H53.25l1.12-7.44Z"/><path class="cls-4" d="M47.1,46,49,30.74c1.11-9.15-4-17.69-11.33-19.07S23.39,16.59,22.28,25.75L19.82,46Z"/><path d="M29.37,29.32l-1.19-.11-.29,3.22-2.2-.2.83-9.12,3.59.32a5.41,5.41,0,0,1,1.41.31,3.25,3.25,0,0,1,1,.63,2.29,2.29,0,0,1,.61.92,2.79,2.79,0,0,1,.14,1.21,3.55,3.55,0,0,1-.2.93,2.3,2.3,0,0,1-.39.69,2.33,2.33,0,0,1-.55.49,3.17,3.17,0,0,1-.69.34l1.57,3.85v.09l-2.35-.21Zm-1-1.81,1.39.13A1.14,1.14,0,0,0,31.1,26.5a1.32,1.32,0,0,0-.24-.95,1.25,1.25,0,0,0-.91-.42L28.56,25Z"/><path d="M36.4,33.2,34.21,33,35,23.88l2.19.2Z"/><path d="M40.41,30.44l-.28,3.1-2.2-.2.83-9.12,3.63.33a4.53,4.53,0,0,1,1.46.36,3.21,3.21,0,0,1,1.06.75,2.8,2.8,0,0,1,.61,1A3.1,3.1,0,0,1,45.65,28a2.81,2.81,0,0,1-.35,1.18,2.6,2.6,0,0,1-.79.86,3.14,3.14,0,0,1-1.16.5,4.9,4.9,0,0,1-1.5.07Zm.15-1.7,1.44.13a1.66,1.66,0,0,0,.6,0,1.09,1.09,0,0,0,.43-.22.91.91,0,0,0,.27-.37,1.21,1.21,0,0,0,.12-.48,1.93,1.93,0,0,0,0-.54,1.31,1.31,0,0,0-.2-.47,1.17,1.17,0,0,0-.38-.35,1.41,1.41,0,0,0-.58-.17l-1.44-.13Z"/></g><g id="Line"><path class="cls-5" d="M56.58,49.14a3.12,3.12,0,0,1-.91,2.2,3.19,3.19,0,0,1-.4.33H8.73a3.11,3.11,0,0,1-.4-4.73,3.07,3.07,0,0,1,2.19-.9h43A3.1,3.1,0,0,1,56.58,49.14Z"/><rect class="cls-6" x="5.35" y="51.67" width="53.3" height="7.53"/><path class="cls-6" d="M51.58,38.73A9.13,9.13,0,0,1,55.22,33L56,27.79A20,20,0,0,0,25.2,8.12c.71,2.33,1.43,4.68,1.54,5s-1.91-1.43-3.9-3.17a19.94,19.94,0,0,0-6.41,11.9L12.78,46H53.25l1.12-7.44Z"/><path class="cls-6" d="M47.1,46,49,30.74c1.11-9.15-4-17.69-11.33-19.07S23.39,16.59,22.28,25.75L19.82,46Z"/><path class="cls-7" d="M29.37,29.32l-1.19-.11-.29,3.22-2.2-.2.83-9.12,3.59.32a5.41,5.41,0,0,1,1.41.31,3.25,3.25,0,0,1,1,.63,2.29,2.29,0,0,1,.61.92,2.79,2.79,0,0,1,.14,1.21,3.55,3.55,0,0,1-.2.93,2.3,2.3,0,0,1-.39.69,2.33,2.33,0,0,1-.55.49,3.17,3.17,0,0,1-.69.34l1.57,3.85v.09l-2.35-.21Zm-1-1.81,1.39.13A1.14,1.14,0,0,0,31.1,26.5a1.32,1.32,0,0,0-.24-.95,1.25,1.25,0,0,0-.91-.42L28.56,25Z"/><path class="cls-7" d="M36.4,33.2,34.21,33,35,23.88l2.19.2Z"/><path class="cls-7" d="M40.41,30.44l-.28,3.1-2.2-.2.83-9.12,3.63.33a4.53,4.53,0,0,1,1.46.36,3.21,3.21,0,0,1,1.06.75,2.8,2.8,0,0,1,.61,1A3.1,3.1,0,0,1,45.65,28a2.81,2.81,0,0,1-.35,1.18,2.6,2.6,0,0,1-.79.86,3.14,3.14,0,0,1-1.16.5,4.9,4.9,0,0,1-1.5.07Zm.15-1.7,1.44.13a1.66,1.66,0,0,0,.6,0,1.09,1.09,0,0,0,.43-.22.91.91,0,0,0,.27-.37,1.21,1.21,0,0,0,.12-.48,1.93,1.93,0,0,0,0-.54,1.31,1.31,0,0,0-.2-.47,1.17,1.17,0,0,0-.38-.35,1.41,1.41,0,0,0-.58-.17l-1.44-.13Z"/></g><g id="Shadow" class="cls-8"><path d="M55.27,51.67a3.19,3.19,0,0,0,.4-.33A3.1,3.1,0,0,0,53.48,46H41.29a3.1,3.1,0,0,1,2.19,5.3,3.19,3.19,0,0,1-.4.33h3.38V59.2H58.65V51.67Z"/><path d="M53.25,46l1.12-7.44-2.79.14A9.13,9.13,0,0,1,55.22,33L56,27.79A20,20,0,0,0,39.19,5c-.27,0-.53,0-.81-.08a18,18,0,0,1,1.94,2.43c3,4.68,3.81,10.52,3.47,16.09S42.11,34.49,41.3,40c-.3,2.11-.35,4.62,1.17,6H53.25Z"/></g><g id="Highligth"><path class="cls-9" d="M20.2,46l3.65-24.21a19.9,19.9,0,0,1,6.42-11.9l2.36-1.8a20.13,20.13,0,0,1,7.3-2.95c-.25,0-.49-.11-.74-.15a19.9,19.9,0,0,0-14,3.1c.71,2.33,1.43,4.68,1.54,5s-1.91-1.43-3.9-3.17a19.94,19.94,0,0,0-6.41,11.9L12.78,46H20.2Z"/><path class="cls-9" d="M16.16,51.67A3.1,3.1,0,0,1,18,46H10.52a3.07,3.07,0,0,0-2.19.9,3.11,3.11,0,0,0,.4,4.73H5.35V59.2h7.43V51.67Z"/></g></g></g></svg>